<svg width="14" height="14" viewBox="0 0 14 14" fill="none" xmlns="http://www.w3.org/2000/svg">
<path fill-rule="evenodd" clip-rule="evenodd" d="M2.91675 5.40462C2.91675 3.14712 4.74258 1.32129 7.00008 1.32129C9.25758 1.32129 11.0834 3.14712 11.0834 5.40462C11.0834 7.83712 8.50508 11.1913 7.44925 12.4688C7.21591 12.7488 6.79008 12.7488 6.55675 12.4688C5.49508 11.1913 2.91675 7.83712 2.91675 5.40462ZM5.54175 5.40462C5.54175 6.20962 6.19508 6.86296 7.00008 6.86296C7.80508 6.86296 8.45842 6.20962 8.45842 5.40462C8.45842 4.59962 7.80508 3.94629 7.00008 3.94629C6.19508 3.94629 5.54175 4.59962 5.54175 5.40462Z" fill="#FF444F"/>
</svg>
